<?xml version="1.0" standalone="no"?>
<svg xmlns:xlink="http://www.w3.org/1999/xlink" id="wave" style="transform:rotate(0deg); transition: 0.3s" viewBox="0 0 1440 440" version="1.1" xmlns="http://www.w3.org/2000/svg"><defs><linearGradient id="sw-gradient-0" x1="0" x2="0" y1="1" y2="0"><stop stop-color="rgba(243, 106, 62, 1)" offset="0%"/><stop stop-color="rgba(255, 179, 11, 1)" offset="100%"/></linearGradient></defs><path style="transform:translate(0, 0px); opacity:1" fill="url(#sw-gradient-0)" d="M0,396L40,344.7C80,293,160,191,240,176C320,161,400,235,480,278.7C560,323,640,337,720,300.7C800,264,880,176,960,124.7C1040,73,1120,59,1200,80.7C1280,103,1360,161,1440,198C1520,235,1600,249,1680,271.3C1760,293,1840,323,1920,278.7C2000,235,2080,117,2160,88C2240,59,2320,117,2400,117.3C2480,117,2560,59,2640,44C2720,29,2800,59,2880,80.7C2960,103,3040,117,3120,161.3C3200,205,3280,279,3360,293.3C3440,308,3520,264,3600,205.3C3680,147,3760,73,3840,66C3920,59,4000,117,4080,146.7C4160,176,4240,176,4320,146.7C4400,117,4480,59,4560,95.3C4640,132,4720,264,4800,286C4880,308,4960,220,5040,154C5120,88,5200,44,5280,73.3C5360,103,5440,205,5520,256.7C5600,308,5680,308,5720,308L5760,308L5760,440L5720,440C5680,440,5600,440,5520,440C5440,440,5360,440,5280,440C5200,440,5120,440,5040,440C4960,440,4880,440,4800,440C4720,440,4640,440,4560,440C4480,440,4400,440,4320,440C4240,440,4160,440,4080,440C4000,440,3920,440,3840,440C3760,440,3680,440,3600,440C3520,440,3440,440,3360,440C3280,440,3200,440,3120,440C3040,440,2960,440,2880,440C2800,440,2720,440,2640,440C2560,440,2480,440,2400,440C2320,440,2240,440,2160,440C2080,440,2000,440,1920,440C1840,440,1760,440,1680,440C1600,440,1520,440,1440,440C1360,440,1280,440,1200,440C1120,440,1040,440,960,440C880,440,800,440,720,440C640,440,560,440,480,440C400,440,320,440,240,440C160,440,80,440,40,440L0,440Z"/><defs><linearGradient id="sw-gradient-1" x1="0" x2="0" y1="1" y2="0"><stop stop-color="rgba(243, 106, 62, 1)" offset="0%"/><stop stop-color="rgba(255, 179, 11, 1)" offset="100%"/></linearGradient></defs><path style="transform:translate(0, 50px); opacity:0.9" fill="url(#sw-gradient-1)" d="M0,44L40,102.7C80,161,160,279,240,315.3C320,352,400,308,480,256.7C560,205,640,147,720,139.3C800,132,880,176,960,205.3C1040,235,1120,249,1200,256.7C1280,264,1360,264,1440,234.7C1520,205,1600,147,1680,146.7C1760,147,1840,205,1920,190.7C2000,176,2080,88,2160,58.7C2240,29,2320,59,2400,124.7C2480,191,2560,293,2640,344.7C2720,396,2800,396,2880,359.3C2960,323,3040,249,3120,183.3C3200,117,3280,59,3360,66C3440,73,3520,147,3600,154C3680,161,3760,103,3840,73.3C3920,44,4000,44,4080,95.3C4160,147,4240,249,4320,293.3C4400,337,4480,323,4560,315.3C4640,308,4720,308,4800,308C4880,308,4960,308,5040,271.3C5120,235,5200,161,5280,176C5360,191,5440,293,5520,293.3C5600,293,5680,191,5720,139.3L5760,88L5760,440L5720,440C5680,440,5600,440,5520,440C5440,440,5360,440,5280,440C5200,440,5120,440,5040,440C4960,440,4880,440,4800,440C4720,440,4640,440,4560,440C4480,440,4400,440,4320,440C4240,440,4160,440,4080,440C4000,440,3920,440,3840,440C3760,440,3680,440,3600,440C3520,440,3440,440,3360,440C3280,440,3200,440,3120,440C3040,440,2960,440,2880,440C2800,440,2720,440,2640,440C2560,440,2480,440,2400,440C2320,440,2240,440,2160,440C2080,440,2000,440,1920,440C1840,440,1760,440,1680,440C1600,440,1520,440,1440,440C1360,440,1280,440,1200,440C1120,440,1040,440,960,440C880,440,800,440,720,440C640,440,560,440,480,440C400,440,320,440,240,440C160,440,80,440,40,440L0,440Z"/><defs><linearGradient id="sw-gradient-2" x1="0" x2="0" y1="1" y2="0"><stop stop-color="rgba(243, 106, 62, 1)" offset="0%"/><stop stop-color="rgba(255, 179, 11, 1)" offset="100%"/></linearGradient></defs><path style="transform:translate(0, 100px); opacity:0.8" fill="url(#sw-gradient-2)" d="M0,308L40,300.7C80,293,160,279,240,264C320,249,400,235,480,256.7C560,279,640,337,720,315.3C800,293,880,191,960,139.3C1040,88,1120,88,1200,117.3C1280,147,1360,205,1440,249.3C1520,293,1600,323,1680,300.7C1760,279,1840,205,1920,176C2000,147,2080,161,2160,198C2240,235,2320,293,2400,271.3C2480,249,2560,147,2640,154C2720,161,2800,279,2880,286C2960,293,3040,191,3120,161.3C3200,132,3280,176,3360,183.3C3440,191,3520,161,3600,132C3680,103,3760,73,3840,102.7C3920,132,4000,220,4080,264C4160,308,4240,308,4320,271.3C4400,235,4480,161,4560,124.7C4640,88,4720,88,4800,80.7C4880,73,4960,59,5040,110C5120,161,5200,279,5280,278.7C5360,279,5440,161,5520,146.7C5600,132,5680,220,5720,264L5760,308L5760,440L5720,440C5680,440,5600,440,5520,440C5440,440,5360,440,5280,440C5200,440,5120,440,5040,440C4960,440,4880,440,4800,440C4720,440,4640,440,4560,440C4480,440,4400,440,4320,440C4240,440,4160,440,4080,440C4000,440,3920,440,3840,440C3760,440,3680,440,3600,440C3520,440,3440,440,3360,440C3280,440,3200,440,3120,440C3040,440,2960,440,2880,440C2800,440,2720,440,2640,440C2560,440,2480,440,2400,440C2320,440,2240,440,2160,440C2080,440,2000,440,1920,440C1840,440,1760,440,1680,440C1600,440,1520,440,1440,440C1360,440,1280,440,1200,440C1120,440,1040,440,960,440C880,440,800,440,720,440C640,440,560,440,480,440C400,440,320,440,240,440C160,440,80,440,40,440L0,440Z"/></svg>